<svg xmlns="http://www.w3.org/2000/svg" width="116" height="116" viewBox="0 0 116 116"><defs><style>.a{fill:#cca43c;}.b,.c{fill:#fff;}.b{opacity:0.3;}</style></defs><g transform="translate(-210 -314)"><circle class="a" cx="58" cy="58" r="58" transform="translate(210 314)"/><g transform="translate(25.572 21.59)"><path class="b" d="M73.914,59.966a11,11,0,0,0-1-3.44,9.115,9.115,0,0,0-5.311-4.653,8.741,8.741,0,0,0-6.308.139.441.441,0,0,1-.374-.048c-1.6-1.257-3.248-2.523-4.783-3.876q-.748-.652-1.468-1.338L50,51.542q1.1,1.209,2.144,2.471c1.156,1.4,2.2,2.878,3.277,4.346a.782.782,0,0,1,.115.556,9.594,9.594,0,0,0-.048,3.785,9.446,9.446,0,0,0,4.586,6.673,8.731,8.731,0,0,0,7.11.859,1.684,1.684,0,0,0,.254-.125,2.048,2.048,0,0,0-.168-.211q-2.4-2.48-4.8-4.965a.691.691,0,0,1-.216-.427c.043-1.18.106-2.36.177-3.54a.6.6,0,0,1,.158-.341q.84-.9,1.7-1.761a.566.566,0,0,1,.341-.144c1.108-.072,2.216-.144,3.325-.187a.772.772,0,0,1,.523.211q1.857,1.885,3.68,3.795c.446.48.878.959,1.367,1.468.058-.216.086-.321.11-.427q.178-.849.35-1.7V60.245A2.691,2.691,0,0,1,73.914,59.966Z" transform="translate(191.982 301.666)"/><path class="b" d="M24.455,14.164c-.374-.509-.614-.959-.221-1.535a.633.633,0,0,0,.053-.168A9.758,9.758,0,0,0,20.824,1.8,8.928,8.928,0,0,0,13.052.295c-.168.038-.336.11-.542.173l.648.662Q15.374,3.413,17.585,5.7a.585.585,0,0,1,.163.374q-.067,1.751-.168,3.5a.648.648,0,0,1-.163.374c-.542.576-1.089,1.147-1.65,1.7a.777.777,0,0,1-.446.221c-1.07.106-2.125.144-3.214.221a.691.691,0,0,1-.59-.245Q9.488,9.74,7.439,7.634c-.307-.317-.614-.624-.959-.993L6,8.738v1.684a1.14,1.14,0,0,0,.072.24,22.091,22.091,0,0,0,.576,2.4,8.985,8.985,0,0,0,4.989,5.378,8.573,8.573,0,0,0,6.054.456.619.619,0,0,1,.48.053c.643.48,1.29.959,1.885,1.478,1.07.959,2.149,1.919,3.2,2.878l4.716-4.8Q26.12,16.428,24.455,14.164Z" transform="translate(214.874 326.001)"/><path class="c" d="M28.5,23.07,31.662,19.8l6.169-6.323a.8.8,0,0,1,.4-.23l1.919-.48a.48.48,0,0,0,.293-.206q1.948-2.878,3.9-5.728l.091-.144L42.7,4.86l-.144.1L36.939,8.966a.48.48,0,0,0-.192.283c-.163.7-.341,1.391-.5,2.092a.561.561,0,0,1-.154.273l-9.369,9.623-6.649,6.846-.792.83-.13.12-2.327-1.511H16.8c-.369.379-.744.753-1.113,1.137a.293.293,0,0,0-.058.182,4.413,4.413,0,0,1-1,2.72,6.994,6.994,0,0,1-4.7,2.586.547.547,0,0,0-.35.178L.2,43.963a2.015,2.015,0,0,1-.2.158v.4a1.8,1.8,0,0,1,.072.249,5.018,5.018,0,0,0,.312,1.18,7.637,7.637,0,0,0,3.257,3.775,5.5,5.5,0,0,0,2.331.768.422.422,0,0,0,.379-.139l9.307-9.566c.062-.062.115-.125.182-.182a.293.293,0,0,0,.1-.23,3.113,3.113,0,0,1,.043-.48,7.584,7.584,0,0,1,2.111-4.1,4.284,4.284,0,0,1,3.017-1.319.293.293,0,0,0,.216-.11l1-1.027c.024-.029.048-.058.072-.091l-1.439-2.4.182-.192.729-.748Z" transform="translate(217.996 323.46)"/></g></g></svg>