<svg xmlns="http://www.w3.org/2000/svg" width="116" height="116" viewBox="0 0 116 116"><defs><style>.a{fill:#cca43c;}.b{fill:none;}.c,.d{fill:#fff;fill-rule:evenodd;}.d{opacity:0.3;}</style></defs><g transform="translate(-502 -314)"><circle class="a" cx="58" cy="58" r="58" transform="translate(502 314)"/><g transform="translate(529.801 341.801)"><rect class="b" width="60" height="60" transform="translate(0.2 0.199)"/><path class="c" d="M36.59,4.152l-7.714,7.714a5.275,5.275,0,0,0,0,7.459l3.73,3.73a5.275,5.275,0,0,0,7.459,0l7.714-7.714A15.613,15.613,0,0,1,25.868,33.523l-13.52,13.52a5.275,5.275,0,1,1-7.459-7.459l13.52-13.52A15.613,15.613,0,0,1,36.59,4.152Z" transform="translate(4.022 4.441)"/><path class="d" d="M21.711,6.408l3.73,3.73a2.637,2.637,0,0,1,0,3.73L21.8,17.506a2.637,2.637,0,0,1-3.73,0l-3.73-3.73a2.637,2.637,0,0,1,0-3.73l3.639-3.639A2.637,2.637,0,0,1,21.711,6.408Z" transform="translate(20.766 7.779)"/></g></g></svg>