<svg xmlns="http://www.w3.org/2000/svg" width="50.012" height="45.846" viewBox="0 0 50.012 45.846"><defs><style>.a{fill:#eceff1;}.b{fill:#ffc107;}.c{fill:#388e3c;}.d{fill:#4caf50;}</style></defs><g transform="translate(0 -0.492)"><path class="a" d="M13.023,170.4a7.8,7.8,0,0,1-7.381-5.316l-.073-.24a7.606,7.606,0,0,1-.361-2.259V148.375L.153,165.25a4.733,4.733,0,0,0,3.317,5.741l32.223,8.63a4.781,4.781,0,0,0,1.2.154,4.646,4.646,0,0,0,4.5-3.407l1.877-5.97Zm0,0" transform="translate(0 -133.437)"/><path class="a" d="M127,5.181V29.146a4.7,4.7,0,0,1-4.689,4.689h-32.3a5.472,5.472,0,0,1-.6-.042,4.662,4.662,0,0,1-4.063-4.272,2.252,2.252,0,0,1-.021-.375V5.181A4.7,4.7,0,0,1,90.009.492h32.3A4.7,4.7,0,0,1,127,5.181Zm0,0" transform="translate(-76.986)"/><path class="b" d="M157.656,68.66a4.168,4.168,0,1,1-4.168-4.168A4.168,4.168,0,0,1,157.656,68.66Zm0,0" transform="translate(-134.734 -57.748)"/><path class="c" d="M164.726,122.811v5.856a4.7,4.7,0,0,1-4.689,4.689h-32.3a5.47,5.47,0,0,1-.6-.042L148.6,111.85a3.672,3.672,0,0,1,5.168,0Zm0,0" transform="translate(-114.714 -99.521)"/><path class="d" d="M114.813,200.729H90.2a5.474,5.474,0,0,1-.6-.042,4.662,4.662,0,0,1-4.063-4.272l9.9-9.9a3.673,3.673,0,0,1,5.168,0Zm0,0" transform="translate(-77.18 -166.894)"/></g></svg>