<svg xmlns="http://www.w3.org/2000/svg" width="116" height="116" viewBox="0 0 116 116"><defs><style>.a{fill:#cca43c;}.b,.c{fill:#fff;}.c{opacity:0.3;}</style></defs><g transform="translate(-1086 -314)"><circle class="a" cx="58" cy="58" r="58" transform="translate(1086 314)"/><g transform="translate(1297.162 88.595)"><path class="b" d="M-118.106,322.078a3.616,3.616,0,0,1-3.616-3.616,3.616,3.616,0,0,1,3.616-3.616,3.617,3.617,0,0,1,3.616,3.616h0A3.616,3.616,0,0,1-118.106,322.078Z" transform="translate(-28.947 -28.947)"/><path class="c" d="M-136.061,297.575a7.288,7.288,0,0,1,9.877,2.943,7.288,7.288,0,0,1-2.942,9.877A7.287,7.287,0,0,1-139,307.452a7.286,7.286,0,0,1,0-6.935,4.185,4.185,0,0,1-4.29-.261,4.184,4.184,0,0,1-4.125,3.405h-1.063v1.325a1.833,1.833,0,0,0,1.522,1.806l2.379.417a12.305,12.305,0,0,0,1.228,2.965l-1.375,1.98a1.833,1.833,0,0,0,.206,2.347l1.425,1.425a1.833,1.833,0,0,0,2.347.206l1.98-1.375a12.3,12.3,0,0,0,2.965,1.228l.417,2.379a1.833,1.833,0,0,0,1.778,1.5h2.017a1.833,1.833,0,0,0,1.8-1.512l.417-2.379a12.363,12.363,0,0,0,2.965-1.228l1.98,1.375a1.833,1.833,0,0,0,2.347-.206l1.425-1.425a1.834,1.834,0,0,0,.206-2.347l-1.375-1.98A12.333,12.333,0,0,0-120.6,307.2l2.379-.417a1.833,1.833,0,0,0,1.508-1.8V302.97a1.833,1.833,0,0,0-1.512-1.8l-2.379-.417a12.349,12.349,0,0,0-1.228-2.965l1.375-1.98a1.834,1.834,0,0,0-.206-2.347l-1.425-1.425a1.834,1.834,0,0,0-2.347-.206l-1.98,1.375a12.351,12.351,0,0,0-2.965-1.228l-.408-2.356a1.833,1.833,0,0,0-1.8-1.512h-1.329v1.1a4.185,4.185,0,0,1-3.405,4.125A4.186,4.186,0,0,1-136.061,297.575Z" transform="translate(-14.452 -14.463)"/><path class="b" d="M-151.324,271.7l-1.875-.33a9.732,9.732,0,0,0-.967-2.337l1.1-1.558a1.444,1.444,0,0,0-.16-1.833l-1.123-1.123a1.444,1.444,0,0,0-1.833-.16l-1.558,1.1a9.726,9.726,0,0,0-2.347-.976l-.33-1.875a1.444,1.444,0,0,0-1.421-1.192h-1.59a1.443,1.443,0,0,0-1.448,1.219l-.33,1.875a9.717,9.717,0,0,0-2.337.967l-1.558-1.1a1.444,1.444,0,0,0-1.833.16l-1.123,1.123a1.443,1.443,0,0,0-.16,1.833l1.1,1.558a9.714,9.714,0,0,0-.967,2.337l-1.875.33a1.443,1.443,0,0,0-1.192,1.421v1.59a1.443,1.443,0,0,0,1.2,1.43l1.875.33a9.705,9.705,0,0,0,.967,2.337l-1.091,1.563a1.443,1.443,0,0,0,.16,1.833l1.137,1.114a1.443,1.443,0,0,0,1.833.16l1.558-1.1a9.7,9.7,0,0,0,2.337.967l.33,1.875a1.443,1.443,0,0,0,1.421,1.192h1.59a1.444,1.444,0,0,0,1.421-1.192l.339-1.861a9.714,9.714,0,0,0,2.337-.967l1.567,1.086a1.443,1.443,0,0,0,1.833-.16l1.123-1.123a1.444,1.444,0,0,0,.16-1.833l-1.1-1.558a9.719,9.719,0,0,0,.958-2.365l1.875-.33a1.444,1.444,0,0,0,1.192-1.421v-1.59A1.444,1.444,0,0,0-151.324,271.7Zm-11.312,6.55a4.3,4.3,0,0,1-4.276-4.313,4.294,4.294,0,0,1,4.276-4.276h.036a4.3,4.3,0,0,1,4.276,4.313A4.294,4.294,0,0,1-162.636,278.245Z" transform="translate(0)"/></g></g></svg>