<svg xmlns="http://www.w3.org/2000/svg" width="203" height="56.662" viewBox="0 0 203 56.662"><defs><style>.a{fill:#150104;}.b{fill:#cca43c;}.c{fill:#b01226;}.d{fill:#171102;font-size:20px;font-family:Rubik-Bold, Rubik;font-weight:700;letter-spacing:0.04em;}</style></defs><g transform="translate(-1022.172 -266.366)"><path class="a" d="M1022.172,294.649a28.5,28.5,0,1,1,28.251,28.378A28.379,28.379,0,0,1,1022.172,294.649Zm36.1-1.893,5.51,24.49a25.884,25.884,0,0,0,12.47-28.616,26.343,26.343,0,0,0-51.549,1.781c-1.718,10.785,4.352,23.532,12.858,26.762l5.48-24.409-1.878-.2V285.73a21.615,21.615,0,0,1,2.2.014c.964.1,1.363-.246,1.556-1.222.543-2.748,1.209-5.472,1.825-8.2h7.828l2.146,9.422h3.471v6.836Zm-14.965-2.377h14.649c.373-2.468.373-2.47-1.909-2.471q-5.69,0-11.38,0H1043.3Zm9.937,23.733,8.353,3.538-1.581-7.046Zm-5.174,0-6.769-3.513-1.572,7.054Zm11.287,5.43,0-.446-7.516-3.162v5.079Zm-9.86-3.632-7.534,3.2.035.468,7.5,1.4Zm8.485-6.736-6.152-2.511v5.691Zm-8.495,3.19v-5.709l-6.13,2.518Zm4.922-26.7c-.516-2.325-.979-4.49-1.5-6.643-.056-.234-.393-.463-.649-.553-.1-.035-.485.324-.488.507-.035,2.209-.023,4.418-.023,6.69Zm-6.415,19.2-4.849-2.438c-.374,1.653-.711,3.145-1.107,4.9Zm10.182-2.446-4.858,2.459,5.953,2.428Zm-8.706-16.756v-7.437c-.474.3-.948.438-1.007.674-.552,2.209-1.033,4.436-1.558,6.763Zm2.339,17.493,4.4-2.214-4.4-1.952Zm-2.335-.026v-4.111l-4.361,1.929Zm2.525-7.825,4.041-2.228-.112-.42H1053.9c-2.378,0-2.378,0-2.089,2.4C1051.813,295.093,1051.853,295.12,1052,295.305Zm-3.843,1.873-3.424-1.876c-.284,1.315-.52,2.411-.807,3.741Zm5.021,0,4.225,1.872-.818-3.744Zm-3.713-1.795V292.8h-4.09l-.07.284Z" transform="translate(0 0)"/><path class="b" d="M1065.056,299.353l1.918-.171v-6.836H1063.5c-.721-3.164-1.423-6.247-2.147-9.422h-7.828c-.615,2.724-1.282,5.447-1.825,8.2-.193.977-.592,1.325-1.556,1.222a21.634,21.634,0,0,0-2.2-.014v6.837l1.878.2-5.48,24.409c-8.506-3.229-14.576-15.976-12.858-26.762a26.343,26.343,0,0,1,51.549-1.781,25.884,25.884,0,0,1-12.47,28.616C1068.731,315.69,1066.911,307.6,1065.056,299.353Z" transform="translate(-6.787 -6.597)"/><path class="c" d="M1107.435,355.754v-2.47h1.359q5.69,0,11.38,0c2.282,0,2.282,0,1.909,2.471Z" transform="translate(-64.132 -65.374)"/></g><text class="d" transform="translate(70 35)"><tspan x="0" y="0">TECON PLUS</tspan></text></svg>
