<svg xmlns="http://www.w3.org/2000/svg" width="116" height="116" viewBox="0 0 116 116"><defs><style>.a{fill:#cca43c;}.b,.c{fill:#fff;}.c{opacity:0.402;}</style></defs><g transform="translate(-794 -314)"><circle class="a" cx="58" cy="58" r="58" transform="translate(794 314)"/><g transform="translate(623.531 -105.991)"><rect class="b" width="10.873" height="1.945" transform="translate(223.055 480.436)"/><rect class="b" width="10.873" height="1.945" transform="translate(223.055 476.595)"/><rect class="b" width="5.936" height="1.945" transform="translate(223.055 484.476)"/><path class="c" d="M48.236,13.321s-1.546-7.382-8.23-9.976C36.864,2.1,31.128,1.5,25.491,1.5s-11.372.6-14.515,1.8C4.243,5.889,2.7,13.321,2.7,13.321a52.427,52.427,0,0,0-1.3,12.17,52.708,52.708,0,0,0,1.3,12.17s1.546,7.382,8.23,9.976c3.142,1.2,8.878,1.8,14.515,1.845,5.686-.05,11.422-.6,14.564-1.845,6.684-2.594,8.23-9.976,8.23-9.976a50.363,50.363,0,0,0,1.3-12.17A49.856,49.856,0,0,0,48.236,13.321Zm-12.27,22.1a3,3,0,0,1-2.993,2.993H17.96a3,3,0,0,1-2.993-2.993V15.067a3,3,0,0,1,2.993-2.993H28.434l.349.1a.876.876,0,0,1,.249.2l6.634,6.734a.8.8,0,0,1,.2.349l.05.349V35.417Z" transform="translate(203 452.5)"/><path class="b" d="M56.8,31.993a1,1,0,0,0,1,1h2.893L56.8,29Z" transform="translate(175.233 438.717)"/></g></g></svg>